<svg width="405" height="74" viewBox="0 0 405 74" fill="none" xmlns="http://www.w3.org/2000/svg">
<path d="M405 1L394.031 4.60812L402.64 12.3033L405 1ZM1.5 1C0.795344 1.70955 0.795896 1.7101 0.796724 1.71092C0.797369 1.71156 0.798474 1.71265 0.799764 1.71393C0.802343 1.71648 0.806028 1.72013 0.810817 1.72485C0.820395 1.73431 0.834388 1.74809 0.852782 1.76613C0.88957 1.80221 0.943964 1.85533 1.01585 1.92493C1.15961 2.06415 1.37335 2.26932 1.65613 2.53605C2.22169 3.0695 3.06347 3.84921 4.17417 4.83999C6.39551 6.82151 9.69275 9.64753 14.0073 13.0364C22.6359 19.8138 35.3365 28.8449 51.6405 37.8748C84.2466 55.9335 131.288 74 189 74V72C131.712 72 85.0034 54.0665 52.6095 36.1252C36.4135 27.1551 23.8016 18.1862 15.2427 11.4636C10.9635 8.10247 7.69824 5.30349 5.50552 3.34751C4.40918 2.36954 3.58105 1.60237 3.02844 1.08114C2.75214 0.820525 2.54473 0.621399 2.40713 0.488152C2.33832 0.421529 2.28697 0.371376 2.25319 0.338242C2.2363 0.321676 2.2238 0.309364 2.2157 0.301376C2.21166 0.297382 2.20871 0.294469 2.20687 0.292645C2.20595 0.291733 2.2054 0.291185 2.20493 0.290727C2.20466 0.290452 2.20466 0.290451 1.5 1ZM189 74C321.853 74 381.748 26.4807 399.71 8.41725L398.291 7.00706C380.702 24.6966 321.315 72 189 72V74Z" fill="#3C3C3C"/>
</svg>
