<svg width="177" height="34" viewBox="0 0 177 34" fill="none" xmlns="http://www.w3.org/2000/svg">
<path d="M94 33.5L94.0013 34L94 33.5ZM176.488 4.6104C176.549 4.34108 176.38 4.07331 176.11 4.01233L171.722 3.01856C171.452 2.95758 171.184 3.12648 171.123 3.3958C171.062 3.66513 171.231 3.93289 171.501 3.99387L175.402 4.87722L174.519 8.77846C174.458 9.04779 174.626 9.31555 174.896 9.37654C175.165 9.43752 175.433 9.26862 175.494 8.9993L176.488 4.6104ZM0.625566 1.33136C1.95842 2.83748 3.47641 4.32295 5.15946 5.78024L5.81404 5.02425C4.15986 3.59195 2.67419 2.13736 1.37443 0.668641L0.625566 1.33136ZM15.4535 13.1615C18.8817 15.2406 22.6318 17.2235 26.633 19.0813L27.0541 18.1743C23.0825 16.3302 19.3653 14.3643 15.9721 12.3065L15.4535 13.1615ZM38.3199 23.8908C42.2003 25.3018 46.2263 26.5955 50.3501 27.7518L50.6201 26.789C46.52 25.6392 42.5179 24.3532 38.6616 22.951L38.3199 23.8908ZM62.6298 30.7208C66.7504 31.5607 70.9193 32.2546 75.0933 32.7845L75.2192 31.7925C71.0708 31.2658 66.9265 30.576 62.8295 29.7409L62.6298 30.7208ZM87.6828 33.868C89.8007 33.9605 91.9088 34.0053 94.0013 34L93.9987 33C91.9222 33.0053 89.8295 32.9608 87.7264 32.869L87.6828 33.868ZM94.0013 34C96.4182 33.9938 98.8762 33.86 101.359 33.6157L101.261 32.6205C98.8067 32.862 96.3807 32.9939 93.9987 33L94.0013 34ZM115.85 31.1011C120.606 29.9573 125.341 28.5367 129.948 26.9536L129.623 26.0079C125.041 27.5825 120.336 28.9936 115.617 30.1289L115.85 31.1011ZM143.652 21.6689C148.457 19.6253 152.952 17.5221 156.978 15.5262L156.534 14.6303C152.523 16.6188 148.045 18.7137 143.261 20.7487L143.652 21.6689ZM169.952 8.64865C171.95 7.51714 173.527 6.58655 174.606 5.93845C175.145 5.61439 175.559 5.36094 175.84 5.18829C175.98 5.10196 176.086 5.03583 176.158 4.99117C176.193 4.96884 176.221 4.95188 176.239 4.94045C176.248 4.93473 176.255 4.9304 176.259 4.92746C176.262 4.92599 176.264 4.92488 176.265 4.92411C176.265 4.92373 176.266 4.92344 176.266 4.92323C176.266 4.92313 176.266 4.92305 176.267 4.92299C176.267 4.92296 176.267 4.92294 176.267 4.92292C176.267 4.9229 176.267 4.92288 176 4.49998C175.733 4.07708 175.733 4.07708 175.733 4.07708C175.733 4.07708 175.733 4.07709 175.733 4.07711C175.733 4.07714 175.733 4.07719 175.733 4.07726C175.733 4.07741 175.732 4.07765 175.732 4.07798C175.731 4.07863 175.729 4.07964 175.727 4.08099C175.723 4.0837 175.716 4.08781 175.707 4.09331C175.69 4.10429 175.664 4.1208 175.628 4.14267C175.558 4.18642 175.453 4.25162 175.315 4.337C175.038 4.50777 174.626 4.75926 174.091 5.08131C173.019 5.7254 171.449 6.65162 169.459 7.77853L169.952 8.64865Z" fill="#BDBDBD"/>
</svg>
