<svg width="211" height="39" viewBox="0 0 211 39" fill="none" xmlns="http://www.w3.org/2000/svg">
<path d="M108.831 0.938607L108.837 0.43864L108.831 0.938607ZM210.143 36.6991C210.21 36.9671 210.046 37.2383 209.778 37.3048L205.411 38.388C205.143 38.4544 204.872 38.291 204.805 38.023C204.739 37.755 204.902 37.4838 205.17 37.4174L209.052 36.4545L208.09 32.5721C208.023 32.3041 208.187 32.033 208.455 31.9665C208.723 31.9 208.994 32.0634 209.06 32.3314L210.143 36.6991ZM0.652045 34.6395C2.27681 33.065 4.13009 31.499 6.18656 29.9527L6.78753 30.752C4.75902 32.2772 2.93834 33.8164 1.34796 35.3576L0.652045 34.6395ZM18.4194 22.2351C22.4312 20.0699 26.8093 17.9881 31.4735 16.0281L31.8609 16.95C27.2234 18.8988 22.8748 20.9668 18.8943 23.1151L18.4194 22.2351ZM44.9939 10.9633C49.4644 9.47632 54.0981 8.10851 58.8421 6.8855L59.0918 7.85384C54.3698 9.07117 49.7581 10.4325 45.3095 11.9122L44.9939 10.9633ZM72.9372 3.75365C77.6566 2.87163 82.4311 2.14641 87.2137 1.6009L87.327 2.59446C82.569 3.13716 77.818 3.85878 73.1209 4.73663L72.9372 3.75365ZM101.615 0.523823C104.034 0.441848 106.444 0.412437 108.837 0.43864L108.826 1.43858C106.448 1.41255 104.054 1.44176 101.649 1.52325L101.615 0.523823ZM108.837 0.43864C111.052 0.462895 113.312 0.583571 115.606 0.790272L115.516 1.78624C113.246 1.58167 111.012 1.46252 108.826 1.43858L108.837 0.43864ZM129.009 2.83686C133.36 3.74427 137.758 4.87341 142.135 6.16235L141.852 7.12163C137.497 5.83914 133.126 4.71693 128.805 3.81579L129.009 2.83686ZM154.987 10.3914C159.295 11.9483 163.518 13.606 167.588 15.3017L167.204 16.2248C163.146 14.5345 158.939 12.8827 154.647 11.3318L154.987 10.3914ZM179.971 20.7626C184.379 22.8111 188.465 24.8182 192.112 26.6749L191.658 27.566C188.021 25.7141 183.946 23.7123 179.55 21.6695L179.971 20.7626ZM204.055 33.0301C205.92 34.0688 207.384 34.9085 208.383 35.4887C208.882 35.7789 209.265 36.0042 209.523 36.1571C209.652 36.2336 209.75 36.2919 209.816 36.3313C209.849 36.3509 209.874 36.3658 209.891 36.3759C209.899 36.3809 209.905 36.3847 209.91 36.3872C209.912 36.3885 209.913 36.3895 209.914 36.3902C209.915 36.3905 209.915 36.3907 209.916 36.3909C209.916 36.391 209.916 36.3911 209.916 36.3911C209.916 36.3911 209.916 36.3912 209.916 36.3912C209.916 36.3912 209.916 36.3912 209.658 36.8195C209.4 37.2477 209.4 37.2477 209.4 37.2477C209.4 37.2477 209.4 37.2477 209.4 37.2477C209.4 37.2477 209.4 37.2476 209.4 37.2476C209.4 37.2474 209.399 37.2472 209.399 37.2469C209.398 37.2463 209.396 37.2454 209.394 37.2442C209.39 37.2418 209.384 37.2382 209.376 37.2333C209.36 37.2236 209.336 37.2091 209.303 37.1897C209.238 37.151 209.142 37.0933 209.014 37.0175C208.758 36.866 208.377 36.642 207.88 36.3533C206.887 35.7759 205.428 34.9393 203.568 33.9038L204.055 33.0301Z" fill="#BDBDBD"/>
</svg>
