<svg width="31" height="25" viewBox="0 0 31 25" fill="none" xmlns="http://www.w3.org/2000/svg">
<path d="M15.5 13.9375L14.9299 14.7591C15.2727 14.997 15.7273 14.997 16.0701 14.7591L15.5 13.9375ZM3.9 2H27.1V0H3.9V2ZM27.1 2C28.1509 2 29 2.85418 29 3.875H31C31 1.73332 29.2391 0 27.1 0V2ZM29 3.875V21.125H31V3.875H29ZM29 21.125C29 22.1458 28.1509 23 27.1 23V25C29.2391 25 31 23.2667 31 21.125H29ZM27.1 23H3.9V25H27.1V23ZM3.9 23C2.8491 23 2 22.1458 2 21.125H0C0 23.2667 1.7609 25 3.9 25V23ZM2 21.125V3.875H0V21.125H2ZM2 3.875C2 2.85418 2.8491 2 3.9 2V0C1.7609 0 0 1.73332 0 3.875H2ZM29.4299 3.05345L14.9299 13.1159L16.0701 14.7591L30.5701 4.69655L29.4299 3.05345ZM16.0701 13.1159L1.57013 3.05345L0.42987 4.69655L14.9299 14.7591L16.0701 13.1159Z" fill="#00A68F"/>
</svg>
