<svg width="280" height="34" viewBox="0 0 280 34" fill="none" xmlns="http://www.w3.org/2000/svg">
<path d="M104.228 30.6522L104.15 31.6492L104.228 30.6522ZM279.34 4.26769L274.812 14.8898L267.877 5.65733L279.34 4.26769ZM1.31925 1.14033C2.11062 0.528989 2.11003 0.528228 2.10951 0.527554C2.10942 0.527446 2.10897 0.526861 2.1088 0.526644C2.10846 0.526211 2.10839 0.526126 2.1086 0.526388C2.10901 0.52691 2.11051 0.528816 2.11313 0.532087C2.11836 0.538628 2.12806 0.550631 2.14241 0.567946C2.17111 0.602575 2.21843 0.658463 2.28591 0.734421C2.42084 0.886328 2.63643 1.11858 2.94493 1.42167C3.56187 2.02778 4.55087 2.91764 6.01006 4.01491C8.92828 6.20934 13.7295 9.23512 21.1995 12.4793C36.1421 18.9688 61.7549 26.3284 104.306 29.6552L104.15 31.6492C61.441 28.31 35.5995 20.9136 20.4027 14.3138C12.803 11.0132 7.86333 7.91089 4.80804 5.6134C3.28048 4.46471 2.22457 3.51767 1.5433 2.84835C1.20269 2.51372 0.955853 2.24864 0.79063 2.06263C0.708023 1.96964 0.645835 1.89643 0.602546 1.8442C0.580902 1.81808 0.563985 1.79721 0.551603 1.78174C0.545413 1.77401 0.540357 1.76762 0.536411 1.7626C0.534438 1.76009 0.532743 1.75793 0.531322 1.7561C0.530612 1.75519 0.529752 1.75408 0.529397 1.75363C0.528606 1.75261 0.527882 1.75167 1.31925 1.14033ZM104.306 29.6552C210.388 37.9492 255.886 18.5941 271.618 8.82291L272.673 10.5219C256.465 20.5891 210.499 39.964 104.15 31.6492L104.306 29.6552Z" fill="#525252"/>
</svg>
