<svg width="16" height="16" viewBox="0 0 16 16" fill="none" xmlns="http://www.w3.org/2000/svg">
<path d="M15.9995 11.9791V14.3877C16.0004 14.6113 15.9545 14.8327 15.8648 15.0375C15.775 15.2424 15.6434 15.4263 15.4783 15.5775C15.3132 15.7286 15.1183 15.8437 14.906 15.9154C14.6938 15.987 14.4689 16.0136 14.2457 15.9935C11.7702 15.725 9.39235 14.8808 7.30312 13.5286C5.35937 12.2959 3.71141 10.6512 2.47627 8.71134C1.11669 6.61679 0.270593 4.23206 0.00652969 1.75036C-0.0135738 1.52834 0.0128649 1.30457 0.0841619 1.0933C0.155459 0.882034 0.270052 0.687898 0.420646 0.523253C0.57124 0.358607 0.754535 0.22706 0.958861 0.136987C1.16319 0.0469136 1.38407 0.000287778 1.60744 7.78413e-05H4.02086C4.41128 -0.00375708 4.78977 0.134222 5.0858 0.388297C5.38182 0.642373 5.57517 0.995207 5.62981 1.38103C5.73168 2.15185 5.92059 2.9087 6.19295 3.63713C6.30118 3.9245 6.32461 4.23682 6.26045 4.53707C6.19629 4.83732 6.04723 5.11292 5.83093 5.33121L4.80925 6.35087C5.95446 8.36092 7.62206 10.0252 9.6361 11.1682L10.6578 10.1485C10.8765 9.93264 11.1527 9.78387 11.4535 9.71984C11.7544 9.6558 12.0673 9.67918 12.3552 9.78721C13.0851 10.059 13.8435 10.2476 14.6158 10.3492C15.0066 10.4042 15.3635 10.6007 15.6186 10.9012C15.8737 11.2017 16.0093 11.5853 15.9995 11.9791Z" fill="white"/>
</svg>
