<svg width="54" height="54" fill="none" xmlns="http://www.w3.org/2000/svg"><path fill-rule="evenodd" clip-rule="evenodd" d="M23.778 3.5C12.578 3.5 3.5 12.579 3.5 23.778c0 11.199 9.079 20.278 20.278 20.278 5.226 0 9.99-1.978 13.586-5.225l1.467-1.467a20.203 20.203 0 005.225-13.586c0-11.2-9.08-20.278-20.278-20.278zm17.486 35.643a23.19 23.19 0 005.792-15.365C47.056 10.922 36.634.5 23.778.5 10.922.5.5 10.922.5 23.778c0 12.856 10.422 23.278 23.278 23.278a23.19 23.19 0 0015.365-5.792L51 53.121 53.121 51 41.264 39.143z" fill="#000"/><path d="M15.527 25.729v-2.79h7.239v-7.288h2.839v7.288h7.238v2.79h-7.239V33h-2.838v-7.271h-7.239z" fill="#000"/></svg>